<?xml version="1.0" encoding="utf-8" standalone="no"?>
<svg version="1.2" width="560.000000pt" height="560.000000pt" viewBox="0 0 560.000000 560.000000" preserveAspectRatio="xMidYMid meet" baseProfile="tiny-ps" xmlns="http://www.w3.org/2000/svg">
  <title>SCSVG</title>
  <g transform="translate(0.000000,560.000000) scale(0.100000,-0.100000)" fill="#000000" stroke="none">
    <path d="M818 5498 c-2 -57 -2 -105 -2 -108 1 -3 61 -4 133 -2 l131 3 -28 42 c-15 23 -34 55 -42 71 -16 32 -72 96 -84 96 -4 0 4 -15 18 -33 15 -19 26 -37 26 -41 0 -4 14 -27 30 -51 17 -24 30 -48 30 -54 0 -11 -155 -16 -182 -6 -11 4 -13 19 -8 60 7 63 2 125 -10 125 -5 0 -10 -46 -12 -102z" />
    <path d="M1878 5575 c2 -14 6 -25 8 -25 2 0 4 11 4 25 0 14 -4 25 -9 25 -4 0 -6 -11 -3 -25z" />
    <path d="M4611 5584 c0 -11 3 -14 6 -6 3 7 2 16 -1 19 -3 4 -6 -2 -5 -13z" />
    <path d="M5203 5560 c0 -25 2 -35 4 -22 2 12 2 32 0 45 -2 12 -4 2 -4 -23z" />
    <path d="M3011 5526 c1 -31 5 -54 8 -50 10 10 11 93 0 99 -6 4 -9 -14 -8 -49z" />
    <path d="M3478 5573 c7 -3 16 -2 19 1 4 3 -2 6 -13 5 -11 0 -14 -3 -6 -6z" />
    <path d="M3720 5540 c0 -5 10 -10 23 -10 18 0 19 2 7 10 -19 13 -30 13 -30 0z" />
    <path d="M4611 5534 c0 -11 3 -14 6 -6 3 7 2 16 -1 19 -3 4 -6 -2 -5 -13z" />
    <path d="M1912 5465 c0 -16 2 -22 5 -12 2 9 2 23 0 30 -3 6 -5 -1 -5 -18z" />
    <path d="M3265 5459 c-136 -41 -280 -112 -402 -197 l-103 -72 -1325 0 c-729 0 -1325 -2 -1325 -4 0 -3 73 -98 115 -149 8 -9 15 -22 15 -27 0 -5 9 -15 20 -22 11 -7 20 -18 20 -25 0 -7 5 -13 11 -13 15 0 -24 65 -86 146 -30 38 -52 70 -51 72 4 3 2576 8 2576 5 0 -1 -43 -36 -95 -78 -107 -86 -251 -237 -308 -323 -21 -31 -60 -101 -87 -155 -28 -54 -52 -93 -55 -85 -8 22 -145 418 -172 498 -30 88 -38 100 -67 100 -24 0 -87 -36 -84 -47 1 -5 -4 -28 -11 -53 -17 -59 -11 -111 38 -315 81 -332 94 -391 102 -465 5 -41 23 -146 40 -233 23 -116 28 -162 20 -170 -6 -6 -11 -16 -11 -21 0 -6 5 -4 10 4 8 12 10 11 10 -7 0 -12 5 -25 11 -29 6 -3 8 -17 4 -31 -4 -16 -2 -22 5 -18 6 4 11 -5 12 -22 2 -47 3 -50 16 -65 7 -9 13 -32 14 -52 1 -20 5 -36 10 -36 4 0 7 -9 5 -19 -1 -11 1 -19 4 -18 3 1 13 -6 23 -15 17 -18 29 -22 97 -33 32 -5 41 -14 85 -83 27 -43 89 -117 142 -169 l93 -92 -16 -53 c-27 -87 -34 -100 -50 -94 -8 3 -15 0 -15 -7 0 -7 -33 -30 -73 -52 l-72 -40 -285 -6 c-300 -7 -397 -20 -515 -67 -61 -24 -84 -64 -122 -210 -22 -85 -25 -119 -26 -277 -1 -99 0 -218 2 -265 3 -60 -6 -147 -28 -295 -17 -115 -36 -240 -41 -277 -15 -98 -12 -345 5 -509 8 -78 14 -143 13 -144 -2 -1 -45 -25 -96 -54 -180 -102 -215 -145 -379 -456 -73 -138 -108 -182 -165 -205 -22 -10 -31 -8 -55 9 -39 29 -230 71 -325 71 -87 0 -100 -9 -113 -82 -7 -35 -10 -38 -42 -38 -19 0 -48 -7 -66 -16 -44 -23 -101 -74 -83 -74 8 0 21 6 29 14 30 30 83 56 115 56 40 0 75 -17 69 -33 -3 -7 6 -13 22 -14 14 -1 41 -4 59 -6 17 -3 32 0 32 4 0 8 -30 13 -67 12 -7 -1 -13 3 -13 8 0 5 -5 9 -11 9 -28 0 -36 25 -26 78 10 48 13 51 36 47 23 -5 23 -4 6 4 l-20 10 20 2 c59 6 152 -4 248 -27 111 -27 141 -44 205 -114 17 -19 32 -30 32 -23 0 6 -14 24 -30 40 -33 30 -37 43 -17 43 8 0 22 9 32 20 11 12 25 18 34 15 8 -3 12 -3 8 1 -4 4 1 17 12 28 10 12 48 75 83 141 115 214 130 239 177 302 25 35 53 65 63 68 9 3 38 -6 65 -21 85 -47 98 -67 58 -91 -11 -7 -15 -12 -10 -13 6 0 21 7 34 16 23 16 24 16 57 -22 81 -95 122 -237 111 -386 -5 -66 -10 -82 -29 -98 -13 -11 -29 -17 -35 -15 -7 2 -12 0 -10 -4 1 -5 -9 -18 -22 -30 -13 -12 -20 -21 -15 -21 12 0 42 20 159 104 107 77 124 98 307 376 l115 176 6 101 c8 113 23 194 62 328 26 90 35 111 35 82 0 -22 102 -246 144 -315 l36 -59 -9 -74 c-11 -83 -17 -166 -31 -419 -6 -96 -17 -200 -25 -230 -17 -64 -18 -70 -7 -70 15 0 41 143 47 255 3 61 8 138 11 172 l5 62 47 15 c65 21 90 25 232 38 78 6 146 7 180 2 53 -9 56 -11 82 -59 15 -28 25 -59 23 -70 -3 -11 -2 -14 1 -6 8 18 87 -138 79 -157 -2 -7 -1 -11 3 -8 5 3 37 -51 72 -120 35 -68 68 -124 73 -124 5 0 7 3 5 8 -83 180 -272 544 -285 550 -10 4 -81 7 -158 7 -137 0 -215 -11 -303 -42 -24 -8 -46 -13 -48 -10 -3 3 0 67 7 144 l11 138 -60 115 c-33 63 -77 156 -97 207 l-36 91 20 99 c12 54 22 112 24 130 1 17 5 32 10 33 24 6 263 -22 427 -50 66 -11 337 -78 420 -103 51 -16 43 1 147 -297 65 -185 110 -336 168 -565 l43 -170 69 -6 c37 -4 122 -7 188 -8 l121 -1 27 88 c31 99 142 545 183 732 l27 125 56 42 56 42 7 -52 c11 -80 27 -333 34 -532 l7 -180 -41 -28 c-23 -15 -44 -37 -47 -50 -3 -12 -28 -115 -55 -229 -28 -114 -50 -212 -50 -218 0 -23 19 2 25 33 4 17 29 121 55 230 45 185 61 225 90 227 3 0 11 -87 18 -192 16 -243 23 -308 33 -308 4 0 5 32 2 70 -3 39 -4 70 -2 70 3 0 65 -30 139 -66 74 -36 148 -68 165 -71 16 -3 -47 32 -141 78 l-170 84 -10 116 c-5 64 -5 158 -1 210 4 52 6 124 5 162 -2 42 0 67 7 67 23 0 120 -41 154 -65 20 -14 83 -71 141 -126 58 -56 130 -118 160 -137 30 -20 57 -37 59 -39 2 -1 -21 -25 -52 -53 -72 -66 -107 -135 -107 -211 0 -59 7 -89 20 -89 4 0 4 19 -1 43 -21 114 53 237 185 306 l45 23 70 -43 c38 -23 68 -46 65 -50 -2 -4 -28 -19 -57 -32 -56 -27 -120 -84 -143 -129 -20 -38 -30 -118 -15 -118 6 0 11 16 11 35 0 19 4 35 10 35 5 0 7 6 4 13 -10 27 70 111 137 145 35 18 89 53 119 78 30 25 66 53 80 64 25 19 162 68 264 94 53 13 63 13 100 -1 57 -22 76 -41 76 -77 0 -22 -9 -40 -30 -60 -17 -16 -39 -45 -50 -66 -28 -56 -82 -68 -120 -28 -30 32 -25 55 26 120 25 32 42 63 39 68 -4 6 -1 9 6 8 7 -2 15 5 17 14 3 14 -31 1 -136 -52 -149 -74 -165 -88 -203 -185 -10 -25 -27 -45 -45 -54 -42 -20 -73 -51 -95 -93 -21 -41 -24 -58 -10 -58 5 0 11 12 14 28 8 40 45 82 90 102 34 15 44 27 63 74 41 101 84 143 99 96 6 -19 55 -60 72 -60 4 0 -9 16 -29 34 -21 19 -38 39 -38 46 0 6 20 20 44 31 25 10 47 25 50 32 6 13 2 -22 -9 -63 -3 -14 6 -2 20 25 24 48 60 83 73 71 3 -3 -5 -17 -18 -31 -21 -23 -40 -51 -56 -85 -4 -8 -12 -18 -17 -21 -10 -7 -3 -18 40 -65 24 -26 62 -31 92 -13 14 10 32 5 93 -25 118 -58 133 -81 103 -158 -4 -11 -3 -18 4 -18 35 0 35 97 1 163 -35 68 -47 77 -102 77 -26 0 -48 -4 -48 -8 0 -5 15 -7 33 -6 48 4 63 -3 86 -42 27 -46 26 -49 -6 -26 -16 10 -51 29 -79 42 -58 25 -60 37 -16 89 21 24 36 32 66 34 37 2 42 -2 105 -74 36 -42 67 -73 69 -68 4 10 -22 45 -86 113 -33 36 -53 49 -73 49 -25 0 -27 3 -22 32 3 18 -1 43 -8 56 -7 13 -12 27 -11 31 1 4 -4 5 -11 2 -7 -2 -30 3 -51 11 -43 18 -78 15 -196 -17 -104 -28 -185 -68 -250 -122 -53 -44 -79 -53 -72 -25 2 8 1 11 -3 7 -4 -3 -23 5 -42 18 -20 13 -40 24 -45 24 -5 0 -6 5 -3 10 4 6 3 9 -2 8 -4 -1 -18 1 -30 6 -15 5 -32 2 -51 -9 -28 -17 -30 -16 -83 16 -30 18 -111 88 -182 155 -127 122 -219 184 -272 184 -13 0 -27 6 -32 13 -6 6 -15 106 -22 222 -7 116 -24 293 -38 395 -30 216 -30 203 -15 303 7 43 12 105 12 137 0 32 4 62 10 65 13 8 56 152 74 254 9 46 16 134 16 196 0 103 -2 115 -25 149 -34 50 -70 82 -130 113 -27 14 -61 33 -75 43 -28 19 -141 60 -166 60 -16 0 -203 67 -391 140 -72 27 -83 35 -83 56 0 29 43 58 145 99 130 51 298 189 408 333 28 36 54 59 87 73 64 28 126 110 216 291 52 102 89 236 99 356 7 78 6 84 -19 122 -26 39 -26 41 -16 137 9 90 46 415 70 624 16 138 14 155 -19 178 -16 12 -36 21 -43 21 -15 0 -135 -57 -153 -73 -5 -4 -32 -22 -60 -40 -48 -31 -50 -34 -71 -117 -16 -66 -23 -80 -29 -65 -5 11 -37 63 -72 117 -35 53 -63 99 -63 103 0 3 -18 34 -40 68 -117 184 -278 388 -305 386 -5 0 -55 -14 -110 -30z m146 -20 c16 -17 26 -36 22 -42 -3 -6 -1 -7 5 -3 16 10 262 -327 262 -358 0 -7 60 -104 110 -176 41 -60 170 -306 170 -325 0 -5 -13 11 -29 36 -31 48 -83 103 -138 146 l-31 24 -49 -53 c-154 -169 -399 -396 -412 -382 -4 5 -28 38 -53 74 -61 86 -220 246 -316 317 -89 66 -310 183 -346 183 -29 0 -144 -108 -194 -181 -66 -97 -109 -246 -113 -384 l-1 -50 -12 36 c-6 19 -19 47 -29 62 -34 51 -59 129 -49 151 48 103 68 141 104 203 83 139 290 347 463 463 28 19 55 38 60 42 44 35 155 102 227 138 70 34 277 107 311 109 5 1 22 -13 38 -30z m-1377 -521 c79 -220 163 -460 176 -501 7 -23 6 -29 -8 -33 -9 -3 -40 -14 -67 -25 -28 -10 -64 -19 -82 -19 -19 0 -33 -6 -37 -16 -10 -25 -15 -15 -35 77 -10 46 -33 140 -50 209 -47 189 -48 196 -40 217 4 11 10 38 13 59 8 49 30 82 57 86 25 3 39 28 16 28 -8 0 -19 18 -26 40 -13 45 -31 53 -31 14 0 -17 4 -23 12 -18 8 5 9 2 5 -10 -4 -10 -3 -15 3 -11 18 11 10 -9 -20 -54 -17 -24 -30 -57 -30 -72 0 -42 -17 -43 -24 -1 -15 95 3 202 35 202 11 0 19 5 19 10 0 6 10 10 23 10 20 0 29 -19 91 -192z m2170 157 c22 -15 24 -21 20 -78 -7 -86 -7 -88 -42 -75 -24 9 -36 7 -78 -15 -27 -14 -59 -28 -72 -32 l-22 -6 21 35 c11 20 17 36 12 36 -15 0 -42 -33 -53 -66 -7 -21 -21 -34 -44 -42 -31 -11 -34 -16 -34 -53 -1 -46 5 -48 11 -5 3 29 30 56 55 56 8 0 26 8 40 18 50 33 138 63 166 56 14 -3 26 -11 26 -16 0 -23 -72 -654 -76 -666 -3 -9 -16 -3 -44 20 -30 25 -40 41 -40 63 0 17 -10 66 -21 110 -11 44 -23 91 -26 104 -3 13 -34 80 -69 149 -35 71 -59 131 -55 137 7 8 14 31 26 75 0 3 4 22 8 42 6 29 15 41 41 53 18 9 42 24 53 35 26 24 133 78 156 79 10 1 28 -6 41 -14z m-1482 -260 c61 -31 143 -78 182 -105 138 -96 300 -258 376 -375 19 -30 38 -55 42 -55 17 0 146 116 301 272 l168 169 69 -67 c128 -124 173 -248 174 -474 1 -181 -21 -266 -118 -471 -32 -67 -148 -191 -225 -240 l-53 -34 33 -7 c19 -4 44 -5 57 -3 12 3 22 3 22 1 0 -3 -24 -28 -52 -56 -149 -144 -360 -230 -531 -216 -272 22 -499 131 -677 324 -38 41 -73 72 -77 69 -16 -17 190 -208 283 -263 184 -109 445 -173 590 -144 198 39 351 130 487 288 17 20 36 32 52 32 14 0 25 -2 25 -5 0 -35 -99 -137 -192 -197 -27 -17 -48 -35 -48 -40 0 -13 10 -10 43 14 50 35 56 40 120 98 l61 55 -48 -60 c-80 -99 -126 -146 -138 -139 -6 4 -8 3 -4 -4 6 -11 -62 -72 -145 -129 -25 -17 -87 -49 -138 -71 -51 -22 -110 -53 -132 -68 -35 -24 -45 -26 -96 -21 -33 4 -68 14 -84 26 -15 11 -69 37 -121 57 -128 50 -172 71 -253 124 -159 104 -365 340 -365 418 0 29 106 47 149 26 35 -18 145 -38 164 -31 9 3 -9 29 -54 76 -38 41 -94 117 -130 177 -56 96 -64 116 -85 222 -25 122 -44 287 -39 332 2 14 6 52 9 85 8 75 47 194 86 260 27 47 176 205 192 205 5 0 58 -25 120 -55z m-456 -515 c36 -104 90 -394 114 -610 6 -52 13 -102 16 -110 3 -12 -5 -15 -35 -15 -44 0 -71 -18 -71 -47 0 -18 -5 -19 -37 -14 -63 12 -73 16 -88 45 -39 77 -155 604 -155 707 0 47 11 59 60 67 19 3 60 15 90 26 30 11 62 20 70 18 8 -1 24 -31 36 -67z m1891 -148 c25 -33 26 -38 19 -121 -9 -127 -40 -241 -97 -355 -87 -175 -171 -286 -218 -286 -7 0 -7 8 -1 26 6 14 10 35 10 46 0 17 -5 20 -30 16 -31 -5 -37 1 -21 18 19 19 124 228 161 318 53 131 69 205 72 327 l3 106 38 -30 c20 -17 49 -46 64 -65z m-1608 -564 c71 -76 72 -75 -43 -42 -95 27 -100 35 -111 174 -2 36 -7 76 -11 90 -4 14 18 -15 47 -64 30 -49 83 -120 118 -158z m1275 -55 c-39 -70 -56 -84 -105 -90 l-44 -6 35 25 c20 13 58 45 85 71 28 26 51 47 53 47 2 0 -9 -21 -24 -47z m-1019 -523 c44 -21 98 -43 120 -50 54 -17 109 -45 124 -64 10 -12 33 -16 97 -16 80 0 84 -1 84 -22 0 -21 24 -32 233 -110 127 -47 252 -89 277 -93 47 -8 69 -17 185 -79 82 -44 129 -86 157 -140 18 -36 20 -51 13 -155 -4 -75 -18 -162 -38 -246 l-32 -130 -7 80 c-16 170 -28 279 -33 283 -14 14 -15 -12 -3 -69 18 -89 15 -433 -5 -569 -9 -57 -12 -107 -8 -110 4 -3 13 -49 19 -103 12 -97 12 -99 -10 -117 -26 -22 -43 -26 -32 -8 4 7 3 8 -5 4 -6 -4 -9 -11 -6 -16 5 -9 -49 -53 -57 -45 -2 2 -4 -4 -5 -13 -4 -55 -128 -575 -191 -801 l-37 -134 -174 6 c-179 5 -190 8 -191 48 0 41 -95 386 -166 602 -25 75 -42 142 -38 149 4 6 3 8 -3 5 -6 -4 -26 35 -48 96 -21 56 -45 109 -54 118 -54 54 -668 179 -879 179 -20 0 -23 4 -18 28 3 15 10 97 15 182 10 159 12 167 72 298 44 96 45 104 10 166 -53 98 -100 166 -114 166 -14 0 -81 -24 -197 -70 -111 -44 -286 -141 -339 -187 l-54 -47 -18 22 c-25 31 -32 124 -26 320 5 175 22 269 67 366 24 55 45 69 126 90 170 44 215 48 486 50 225 1 269 4 285 17 10 9 49 33 87 53 72 40 96 73 111 157 l7 37 66 -46 c37 -25 103 -62 147 -82z m-719 -733 c9 -18 20 -34 24 -37 4 -3 22 -35 40 -73 38 -75 38 -74 -20 -202 -44 -98 -48 -114 -54 -245 -4 -69 -11 -152 -17 -185 -5 -33 -10 -68 -10 -78 0 -10 -5 -15 -11 -11 -7 4 -8 2 -4 -5 9 -14 -15 -161 -26 -155 -4 3 -5 -1 -2 -9 5 -15 -1 -43 -60 -271 -23 -89 -38 -176 -42 -240 -6 -94 -9 -105 -47 -168 -48 -79 -108 -160 -122 -165 -5 -1 -17 2 -25 7 -13 9 -13 11 0 20 9 6 10 10 3 10 -21 0 -27 -23 -9 -35 13 -10 14 -14 3 -24 -14 -11 -15 -9 -20 43 -1 13 -5 22 -9 20 -3 -2 -11 11 -18 30 -6 19 -28 61 -49 93 -21 32 -36 63 -34 70 2 6 -1 14 -6 18 -7 4 -8 -1 -5 -12 4 -12 -4 -8 -22 12 -16 16 -29 34 -29 40 0 5 -4 10 -10 10 -17 0 -36 16 -30 26 3 5 -2 6 -11 2 -10 -4 -15 -2 -11 4 3 5 1 10 -6 10 -7 0 -29 10 -50 23 l-38 23 43 28 c35 23 39 29 21 29 -12 0 -25 -5 -29 -11 -14 -23 -22 16 -34 156 -21 236 -3 533 50 815 6 30 13 85 17 123 6 68 10 76 30 56 9 -9 25 0 65 35 29 25 58 46 65 46 7 0 13 4 13 9 0 8 89 54 220 115 87 40 234 94 243 89 4 -2 14 -19 23 -36z m-708 -1491 c126 -64 231 -188 277 -327 15 -43 29 -79 33 -79 3 0 14 7 24 17 37 33 24 6 -38 -82 -75 -105 -106 -139 -165 -181 l-44 -32 -1 117 c-1 87 -6 131 -21 178 -38 117 -122 218 -230 279 -49 27 -66 44 -44 44 5 0 42 20 82 45 40 25 75 45 76 45 2 0 25 -11 51 -24z" />
    <path d="M3305 5408 c-192 -65 -425 -197 -551 -312 -48 -43 -56 -69 -16 -47 66 35 306 -15 476 -100 l80 -40 94 17 c68 12 125 15 204 12 78 -4 107 -3 99 5 -18 18 -226 18 -314 0 l-77 -16 -73 36 c-128 64 -288 106 -403 108 l-77 1 29 24 c34 28 169 119 239 161 96 58 277 136 340 145 24 4 54 -28 182 -202 90 -122 134 -188 171 -256 7 -13 17 -24 23 -24 13 0 11 7 -10 38 -10 15 -45 68 -77 117 -62 96 -184 259 -233 313 -31 34 -54 38 -106 20z" />
    <path d="M2476 4868 c3 -5 10 -6 15 -3 13 9 11 12 -6 12 -8 0 -12 -4 -9 -9z" />
    <path d="M2410 4771 c0 -7 -5 -9 -12 -5 -7 5 -8 3 -3 -5 5 -9 10 -10 18 -2 6 6 8 14 4 18 -4 3 -7 1 -7 -6z" />
    <path d="M1970 4955 c0 -4 8 -20 17 -38 19 -35 20 -38 22 -64 1 -16 3 -16 11 -2 6 11 2 30 -12 62 -19 40 -38 61 -38 42z" />
    <path d="M2026 4835 c-4 -12 -3 -21 3 -23 6 -2 11 -9 11 -15 0 -7 12 -34 26 -62 25 -49 24 -28 -1 30 -7 17 -17 43 -22 59 -8 26 -10 28 -17 11z" />
    <path d="M2095 4640 c3 -5 8 -10 11 -10 2 0 4 5 4 10 0 6 -5 10 -11 10 -5 0 -7 -4 -4 -10z" />
    <path d="M3967 4951 c-16 -16 -30 -42 -34 -64 -3 -21 -10 -34 -16 -30 -6 3 -7 1 -3 -5 11 -19 33 -2 40 29 3 16 20 43 37 58 21 20 26 30 17 33 -7 3 -26 -7 -41 -21z" />
    <path d="M3960 4786 c-5 -13 -11 -41 -15 -62 l-6 -39 14 35 c8 19 19 47 25 63 7 17 8 27 2 27 -6 0 -15 -11 -20 -24z" />
    <path d="M2592 4821 c-10 -6 -6 -10 15 -15 61 -16 279 -131 313 -166 3 -3 31 -24 63 -48 98 -73 289 -279 309 -332 14 -39 35 -33 110 31 83 71 189 170 227 213 14 17 46 50 70 75 24 25 52 57 62 70 l19 23 66 -63 c36 -35 69 -71 74 -79 13 -25 -9 -157 -41 -254 -36 -108 -101 -223 -181 -325 -33 -40 -56 -76 -53 -79 3 -3 15 7 28 23 12 15 43 53 68 84 25 31 61 86 79 123 19 37 37 65 42 62 4 -3 5 1 2 9 -3 8 1 21 8 28 7 8 13 19 13 24 1 32 18 74 27 69 6 -4 8 -2 4 4 -3 6 1 36 9 68 8 32 15 84 15 116 0 57 -1 59 -57 116 -106 105 -88 104 -179 11 -145 -150 -344 -339 -357 -339 -5 0 -5 -5 -1 -12 5 -8 2 -9 -9 -5 -10 4 -17 1 -17 -6 0 -7 -6 -3 -11 8 -33 59 -90 134 -155 202 -18 18 -30 33 -27 33 2 0 -16 18 -42 40 -25 22 -45 42 -45 45 0 3 -3 5 -6 4 -4 0 -10 5 -15 13 -5 7 -13 13 -18 13 -5 0 -28 17 -50 37 -23 20 -41 34 -41 32 0 -3 -7 2 -16 10 -8 9 -21 16 -29 16 -7 0 -15 4 -17 9 -2 7 -231 122 -241 121 -1 0 -8 -4 -15 -9z" />
    <path d="M2535 4787 c-30 -32 -39 -48 -23 -41 16 7 63 64 51 63 -4 0 -17 -10 -28 -22z" />
    <path d="M3765 4599 c-4 -6 -5 -12 -2 -15 2 -3 7 2 10 11 7 17 1 20 -8 4z" />
    <path d="M3596 3841 c-4 -5 3 -7 14 -4 23 6 26 13 6 13 -8 0 -17 -4 -20 -9z" />
    <path d="M2456 3827 c3 -10 9 -15 12 -12 3 3 0 11 -7 18 -10 9 -11 8 -5 -6z" />
    <path d="M3769 3563 c-13 -16 -12 -17 4 -4 9 7 17 15 17 17 0 8 -8 3 -21 -13z" />
    <path d="M2340 3522 c0 -21 240 -234 329 -291 101 -65 257 -130 312 -131 9 0 37 -18 61 -40 41 -36 52 -40 117 -46 l72 -7 37 35 c26 25 65 45 132 68 105 36 185 73 196 92 5 7 2 9 -7 5 -8 -3 -55 -24 -105 -46 -50 -22 -116 -47 -146 -55 -38 -12 -61 -25 -77 -46 -19 -26 -28 -30 -69 -30 -66 0 -111 15 -146 49 -19 19 -50 34 -81 41 -180 40 -360 154 -557 353 -56 56 -68 65 -68 49z" />
    <path d="M3595 3360 c-3 -5 -1 -10 5 -10 6 0 8 -5 4 -12 -4 -7 -3 -8 4 -4 6 4 9 13 5 21 -6 18 -10 19 -18 5z" />
    <path d="M3535 3320 c-3 -5 -1 -10 4 -10 6 0 11 5 11 10 0 6 -2 10 -4 10 -3 0 -8 -4 -11 -10z" />
    <path d="M2496 3267 c3 -10 9 -15 12 -12 3 3 0 11 -7 18 -10 9 -11 8 -5 -6z" />
    <path d="M3248 3233 c7 -3 16 -2 19 1 4 3 -2 6 -13 5 -11 0 -14 -3 -6 -6z" />
    <path d="M3606 3182 c-3 -5 1 -9 9 -9 8 0 12 4 9 9 -3 4 -7 8 -9 8 -2 0 -6 -4 -9 -8z" />
    <path d="M2027 4266 c-19 -50 63 -437 99 -463 22 -16 45 -118 38 -168 -3 -27 0 -46 10 -60 23 -32 31 -9 18 58 -7 34 -23 127 -37 207 -28 159 -82 395 -96 423 -12 21 -25 22 -32 3z m49 -122 c28 -113 67 -325 61 -331 -14 -13 -56 141 -81 300 -28 170 -19 184 20 31z m113 -547 c1 -5 -3 -5 -9 -2 -5 3 -10 16 -9 28 0 21 1 21 9 2 5 -11 9 -24 9 -28z" />
    <path d="M2204 4239 c-3 -6 -1 -16 5 -22 8 -8 11 -5 11 11 0 24 -5 28 -16 11z" />
    <path d="M2129 4213 c-13 -16 -12 -17 4 -4 9 7 17 15 17 17 0 8 -8 3 -21 -13z" />
    <path d="M2220 4100 c0 -5 5 -10 10 -10 6 0 10 -8 11 -17 0 -13 3 -11 10 7 10 24 11 24 25 6 8 -11 14 -15 14 -9 0 6 -7 16 -16 24 -13 10 -17 10 -25 -2 -6 -10 -9 -10 -9 -1 0 6 -4 12 -10 12 -5 0 -10 -4 -10 -10z" />
    <path d="M2253 3833 c9 -2 23 -2 30 0 6 3 -1 5 -18 5 -16 0 -22 -2 -12 -5z" />
    <path d="M2210 3555 c-7 -9 -8 -15 -2 -15 5 0 12 7 16 15 3 8 4 15 2 15 -2 0 -9 -7 -16 -15z" />
    <path d="M4087 4169 c7 -7 15 -10 18 -7 3 3 -2 9 -12 12 -14 6 -15 5 -6 -5z" />
    <path d="M4101 4134 c0 -11 3 -14 6 -6 3 7 2 16 -1 19 -3 4 -6 -2 -5 -13z" />
    <path d="M4100 4090 c8 -5 20 -10 25 -10 6 0 3 5 -5 10 -8 5 -19 10 -25 10 -5 0 -3 -5 5 -10z" />
    <path d="M3960 3692 c0 -4 9 -8 19 -8 11 0 17 4 15 8 -3 4 -12 8 -20 8 -8 0 -14 -4 -14 -8z" />
    <path d="M4012 3678 c2 -6 12 -12 22 -14 14 -2 15 0 5 12 -14 17 -32 19 -27 2z" />
    <path d="M2570 2793 c0 -5 48 -14 108 -21 59 -7 148 -19 197 -27 106 -17 115 -17 115 -7 0 4 -66 17 -147 29 -202 31 -273 37 -273 26z" />
    <path d="M3052 2695 c21 -19 43 -35 50 -35 6 0 -6 16 -28 35 -51 45 -70 45 -22 0z" />
    <path d="M3283 2679 c-18 -12 -33 -25 -33 -31 0 -10 16 -3 42 20 14 12 36 14 110 8 51 -4 109 -9 128 -12 26 -4 31 -3 19 5 -15 9 -165 31 -214 31 -11 0 -35 -10 -52 -21z" />
    <path d="M3306 2561 c-20 -38 -56 -169 -56 -203 0 -22 -6 -29 -27 -34 -142 -32 -277 -76 -357 -117 l-40 -19 25 -13 c46 -24 205 -77 324 -109 l119 -31 73 -90 c40 -49 93 -110 118 -133 l46 -44 21 24 c11 12 48 63 80 113 l60 90 76 21 c95 26 128 39 138 55 9 16 -39 57 -172 149 -72 49 -121 92 -172 152 -66 79 -118 127 -204 191 l-37 27 -15 -29z m77 -36 c56 -43 147 -134 199 -200 22 -27 61 -64 87 -80 76 -49 210 -146 216 -155 8 -13 -41 -36 -125 -59 -40 -11 -75 -23 -78 -26 -3 -2 -32 -46 -66 -96 -34 -51 -69 -97 -79 -103 -18 -11 -18 -12 -125 109 -10 11 -39 47 -65 81 -46 59 -49 61 -112 72 -35 7 -134 35 -221 64 l-157 51 49 24 c58 28 169 64 277 89 66 15 77 21 77 39 0 48 54 225 69 225 5 0 29 -16 54 -35z" />
    <path d="M3324 2518 c-5 -7 -2 -8 6 -3 10 6 12 4 7 -7 -3 -10 3 -20 19 -28 13 -8 24 -19 24 -25 0 -6 9 -20 19 -32 10 -11 26 -34 35 -52 10 -18 23 -34 31 -37 7 -3 19 -19 25 -35 7 -16 16 -29 21 -29 5 0 11 -11 15 -25 4 -14 22 -36 40 -49 19 -12 31 -25 28 -28 -3 -3 1 -6 8 -5 39 1 68 -4 80 -16 11 -11 49 -26 148 -59 8 -2 12 -3 7 -1 -4 3 -5 9 -2 14 4 5 -2 6 -11 2 -12 -4 -15 -3 -10 5 7 11 -5 16 -31 13 -6 -1 -14 3 -18 9 -3 5 -17 10 -30 10 -12 0 -25 7 -29 15 -3 8 -9 14 -13 13 -15 -3 -98 26 -116 41 -10 8 -31 37 -48 65 -16 28 -46 71 -64 96 -19 25 -49 64 -66 87 -17 24 -35 40 -40 37 -5 -3 -6 1 -3 9 6 17 -22 31 -32 15z" />
    <path d="M3265 2300 c-11 -5 -55 -16 -98 -25 -42 -10 -80 -21 -82 -26 -3 -4 -27 -11 -53 -15 -26 -4 -41 -9 -34 -12 16 -5 132 17 147 29 12 9 86 29 125 34 36 4 88 -9 155 -39 28 -13 62 -28 77 -34 26 -11 27 -10 15 8 -6 11 -18 18 -24 15 -7 -2 -13 0 -13 5 0 6 -5 10 -12 10 -6 0 -34 11 -62 24 -59 27 -112 37 -141 26z" />
    <path d="M3155 2209 c-92 -15 -165 -33 -165 -40 0 -8 42 -5 110 7 19 4 45 7 58 8 12 1 22 4 22 8 0 4 12 5 28 3 15 -2 61 -7 102 -9 41 -3 82 -7 90 -10 8 -3 33 -7 55 -10 22 -2 48 -8 58 -11 10 -4 17 -3 17 5 0 6 -4 9 -9 5 -5 -3 -12 -1 -15 4 -15 23 -273 52 -351 40z" />
    <path d="M3545 2180 c3 -5 8 -10 11 -10 2 0 4 5 4 10 0 6 -5 10 -11 10 -5 0 -7 -4 -4 -10z" />
    <path d="M3581 2397 c-8 -10 -7 -14 2 -14 8 0 14 6 14 14 0 7 -1 13 -2 13 -2 0 -8 -6 -14 -13z" />
    <path d="M1870 2310 c-8 -5 -10 -10 -5 -10 6 0 17 5 25 10 8 5 11 10 5 10 -5 0 -17 -5 -25 -10z" />
    <path d="M3650 2310 c8 -5 20 -10 25 -10 6 0 3 5 -5 10 -8 5 -19 10 -25 10 -5 0 -3 -5 5 -10z" />
    <path d="M3810 2216 c0 -2 7 -7 16 -10 8 -3 12 -2 9 4 -6 10 -25 14 -25 6z" />
    <path d="M1540 2150 c-9 -6 -10 -10 -3 -10 6 0 15 5 18 10 8 12 4 12 -15 0z" />
    <path d="M3923 1343 c0 -8 6 -9 19 -2 10 5 18 11 18 12 0 2 -8 3 -18 3 -10 0 -19 -6 -19 -13z" />
    <path d="M3011 1329 c-7 -12 -10 -23 -8 -26 3 -3 11 5 17 17 15 28 8 35 -9 9z" />
    <path d="M3846 1207 c3 -10 9 -15 12 -12 3 3 0 11 -7 18 -10 9 -11 8 -5 -6z" />
    <path d="M3680 605 c0 -5 5 -17 10 -25 5 -8 10 -10 10 -5 0 6 -5 17 -10 25 -5 8 -10 11 -10 5z" />
    <path d="M3610 351 c0 -6 4 -13 10 -16 6 -3 7 1 4 9 -7 18 -14 21 -14 7z" />
    <path d="M1856 693 c-6 -14 -5 -15 5 -6 7 7 10 15 7 18 -3 3 -9 -2 -12 -12z" />
    <path d="M1840 631 c0 -6 4 -13 10 -16 6 -3 7 1 4 9 -7 18 -14 21 -14 7z" />
    <path d="M1290 740 c-8 -5 -10 -10 -5 -10 6 0 17 5 25 10 8 5 11 10 5 10 -5 0 -17 -5 -25 -10z" />
    <path d="M1630 399 c0 -5 5 -7 10 -4 6 3 10 8 10 11 0 2 -4 4 -10 4 -5 0 -10 -5 -10 -11z" />
    <path d="M1600 391 c0 -6 4 -13 10 -16 6 -3 7 1 4 9 -7 18 -14 21 -14 7z" />
    <path d="M5202 5433 c-2 -29 -5 -32 -39 -36 -37 -4 -37 -4 4 -3 23 0 45 -3 49 -7 12 -12 384 -8 384 4 0 7 -53 10 -172 9 -233 -3 -216 -6 -221 33 l-4 32 -1 -32z" />
    <path d="M3044 5433 c-8 -8 -12 -19 -9 -24 4 -5 -3 -9 -14 -9 -12 0 -21 -4 -21 -10 0 -13 3 -13 35 2 18 8 22 14 13 20 -10 6 -8 8 5 8 9 0 17 4 17 9 0 5 8 7 19 4 10 -3 21 -1 24 4 9 14 -54 11 -69 -4z" />
    <path d="M2558 5419 c-27 -15 -22 -37 7 -35 27 1 27 2 17 28 -5 13 -11 14 -24 7z" />
    <path d="M4623 5400 c1 -11 5 -20 9 -20 11 0 10 28 -1 35 -6 3 -9 -4 -8 -15z" />
    <path d="M1805 5399 c-32 -5 -25 -6 33 -8 39 0 72 1 72 3 0 8 -66 11 -105 5z" />
    <path d="M2105 5400 c3 -5 27 -10 53 -9 38 1 42 2 22 9 -37 12 -82 12 -75 0z" />
    <path d="M2905 5400 c-15 -5 -6 -8 32 -11 52 -4 60 4 13 14 -14 3 -34 2 -45 -3z" />
    <path d="M1740 5389 c0 -5 5 -7 10 -4 6 3 10 8 10 11 0 2 -4 4 -10 4 -5 0 -10 -5 -10 -11z" />
    <path d="M1947 5393 c18 -2 50 -2 70 0 21 2 7 4 -32 4 -38 0 -55 -2 -38 -4z" />
    <path d="M2338 5393 c12 -2 32 -2 45 0 12 2 2 4 -23 4 -25 0 -35 -2 -22 -4z" />
    <path d="M3510 5388 c0 -4 16 -8 35 -8 19 0 35 2 35 4 0 2 -16 6 -35 8 -19 2 -35 0 -35 -4z" />
    <path d="M3582 5329 c-10 -16 -11 -24 -2 -33 8 -8 9 -6 4 8 -4 12 -4 17 2 13 6 -3 11 3 11 14 2 24 1 24 -15 -2z" />
    <path d="M3664 5191 c-2 -2 -4 -8 -4 -12 0 -4 437 -7 970 -7 555 0 970 4 970 9 0 10 -67 10 -1198 13 -404 0 -736 -1 -738 -3z" />
    <path d="M632 5124 c-7 -8 21 -11 100 -11 74 0 106 3 99 10 -14 14 -186 15 -199 1z" />
    <path d="M610 5075 c0 -16 0 -140 0 -274 l1 -245 -26 28 c-14 15 -25 31 -25 37 0 5 -7 12 -15 15 -8 4 -15 11 -15 18 0 10 -24 43 -77 105 -15 18 -22 21 -23 11 0 -14 24 -48 70 -97 11 -13 18 -23 15 -23 -2 0 4 -10 14 -22 11 -13 31 -36 45 -53 15 -16 31 -45 37 -63 6 -18 13 -31 16 -28 9 9 2 589 -7 605 -7 12 -10 9 -10 -14z" />
    <path d="M832 4148 l5 -943 34 3 c19 2 34 5 34 5 0 1 -2 171 -5 377 -3 206 -4 399 -2 428 l3 53 182 -1 c148 -2 181 1 178 12 -2 7 -3 55 -3 107 1 111 -15 111 -22 1 -2 -41 -5 -81 -5 -87 -1 -10 -39 -13 -154 -13 -170 0 -183 -4 -192 -60 -4 -19 -7 -207 -7 -417 0 -214 -4 -383 -9 -383 -10 0 -10 -24 -15 970 -2 421 -3 793 -4 828 0 39 -4 62 -11 62 -8 0 -10 -252 -7 -942z" />
    <path d="M2495 5030 c-3 -6 1 -7 9 -4 18 7 21 14 7 14 -6 0 -13 -4 -16 -10z" />
    <path d="M310 4931 c0 -11 4 -22 9 -25 4 -3 6 6 3 19 -5 30 -12 33 -12 6z" />
    <path d="M240 4899 c0 -5 5 -7 10 -4 6 3 10 8 10 11 0 2 -4 4 -10 4 -5 0 -10 -5 -10 -11z" />
    <path d="M340 4895 c1 -19 27 -63 33 -54 2 2 -5 20 -15 39 -13 25 -18 29 -18 15z" />
    <path d="M388 4850 c-7 -24 -3 -38 8 -28 3 4 4 17 2 30 l-3 23 -7 -25z" />
    <path d="M37 4813 c-4 -3 -7 -11 -7 -17 0 -6 5 -5 12 2 6 6 9 14 7 17 -3 3 -9 2 -12 -2z" />
    <path d="M133 4813 c9 -2 25 -2 35 0 9 3 1 5 -18 5 -19 0 -27 -2 -17 -5z" />
    <path d="M200 4809 c0 -5 5 -7 10 -4 6 3 10 8 10 11 0 2 -4 4 -10 4 -5 0 -10 -5 -10 -11z" />
    <path d="M400 4794 c0 -8 5 -12 10 -9 6 4 8 11 5 16 -9 14 -15 11 -15 -7z" />
    <path d="M40 4636 c0 -2 7 -6 15 -10 8 -3 15 -1 15 4 0 6 -7 10 -15 10 -8 0 -15 -2 -15 -4z" />
    <path d="M88 4613 c7 -3 16 -2 19 1 4 3 -2 6 -13 5 -11 0 -14 -3 -6 -6z" />
    <path d="M168 4553 c7 -3 16 -2 19 1 4 3 -2 6 -13 5 -11 0 -14 -3 -6 -6z" />
    <path d="M672 4420 c0 -14 2 -19 5 -12 2 6 2 18 0 25 -3 6 -5 1 -5 -13z" />
    <path d="M4211 4424 c0 -11 3 -14 6 -6 3 7 2 16 -1 19 -3 4 -6 -2 -5 -13z" />
    <path d="M1300 4415 c0 -9 5 -15 11 -13 6 2 11 8 11 13 0 5 -5 11 -11 13 -6 2 -11 -4 -11 -13z" />
    <path d="M4231 4414 c0 -11 3 -14 6 -6 3 7 2 16 -1 19 -3 4 -6 -2 -5 -13z" />
    <path d="M4840 4420 c-28 -4 13 -8 106 -8 83 -1 167 -5 185 -8 23 -5 31 -3 24 3 -12 13 -252 22 -315 13z" />
    <path d="M1740 4410 c0 -5 5 -10 10 -10 6 0 10 5 10 10 0 6 -4 10 -10 10 -5 0 -10 -4 -10 -10z" />
    <path d="M5358 4413 c45 -2 119 -2 165 0 45 1 8 3 -83 3 -91 0 -128 -2 -82 -3z" />
    <path d="M1448 4403 c7 -3 16 -2 19 1 4 3 -2 6 -13 5 -11 0 -14 -3 -6 -6z" />
    <path d="M1560 4342 c0 -16 56 -24 130 -19 36 3 73 1 82 -4 10 -5 19 -5 22 0 7 11 -39 20 -146 28 -61 4 -88 3 -88 -5z" />
    <path d="M4212 4300 c0 -14 2 -19 5 -12 2 6 2 18 0 25 -3 6 -5 1 -5 -13z" />
    <path d="M1810 4291 c5 -11 14 -31 19 -44 9 -24 13 -25 51 -16 26 6 48 6 60 -1 11 -6 21 -6 25 -1 9 15 -15 24 -68 26 -43 1 -52 5 -64 28 -7 15 -18 27 -24 27 -6 0 -6 -7 1 -19z" />
    <path d="M1517 4293 c-3 -5 1 -17 9 -28 14 -18 14 -18 14 2 0 23 -15 39 -23 26z" />
    <path d="M1510 4257 c0 -16 -32 -23 -77 -18 -6 1 -15 -4 -19 -10 -5 -9 9 -11 55 -6 l63 5 -5 -61 c-3 -34 -8 -266 -12 -514 -5 -329 -4 -453 4 -453 7 0 12 52 13 163 1 89 3 180 4 202 1 22 3 180 5 350 3 281 2 312 -14 335 -13 19 -17 21 -17 7z" />
    <path d="M4258 4263 c12 -2 32 -2 45 0 12 2 2 4 -23 4 -25 0 -35 -2 -22 -4z" />
    <path d="M4537 4263 c18 -2 50 -2 70 0 21 2 7 4 -32 4 -38 0 -55 -2 -38 -4z" />
    <path d="M5128 4263 c6 -2 18 -2 25 0 6 3 1 5 -13 5 -14 0 -19 -2 -12 -5z" />
    <path d="M5548 4263 c6 -2 18 -2 25 0 6 3 1 5 -13 5 -14 0 -19 -2 -12 -5z" />
    <path d="M4978 4253 c12 -2 30 -2 40 0 9 3 -1 5 -23 4 -22 0 -30 -2 -17 -4z" />
    <path d="M5288 4243 c7 -3 16 -2 19 1 4 3 -2 6 -13 5 -11 0 -14 -3 -6 -6z" />
    <path d="M613 4200 c0 -25 2 -35 4 -22 2 12 2 32 0 45 -2 12 -4 2 -4 -23z" />
    <path d="M1310 4230 c0 -5 4 -10 9 -10 6 0 13 5 16 10 3 6 -1 10 -9 10 -9 0 -16 -4 -16 -10z" />
    <path d="M1350 4229 c0 -5 11 -9 25 -9 14 0 25 2 25 4 0 2 -11 6 -25 8 -14 3 -25 1 -25 -3z" />
    <path d="M1784 4128 c2 -35 4 -78 5 -95 1 -23 6 -33 17 -33 10 0 14 6 11 15 -8 19 9 29 20 13 8 -13 12 -38 16 -98 2 -26 7 -35 20 -35 21 0 22 9 8 55 -6 19 -23 80 -38 135 -21 73 -33 101 -45 103 -16 3 -17 -4 -14 -60z m34 -63 c-3 -3 -9 2 -12 12 -6 14 -5 15 5 6 7 -7 10 -15 7 -18z" />
    <path d="M252 4135 c0 -16 2 -22 5 -12 2 9 2 23 0 30 -3 6 -5 -1 -5 -18z" />
    <path d="M1950 4120 c0 -11 5 -20 10 -20 6 0 10 9 10 20 0 11 -4 20 -10 20 -5 0 -10 -9 -10 -20z" />
    <path d="M1960 4074 c0 -13 72 -200 81 -209 12 -12 12 -12 -10 70 -23 86 -48 145 -61 145 -6 0 -10 -3 -10 -6z" />
    <path d="M1150 3875 c-1 -158 -1 -325 0 -597 0 -43 4 -78 9 -78 13 0 13 820 1 840 -6 10 -10 -47 -10 -165z" />
    <path d="M1395 4033 c-8 -19 -7 -824 0 -832 3 -2 7 -2 10 1 6 6 7 839 1 845 -2 2 -7 -4 -11 -14z" />
    <path d="M262 4020 c0 -14 2 -19 5 -12 2 6 2 18 0 25 -3 6 -5 1 -5 -13z" />
    <path d="M1006 4003 c-3 -21 -5 -210 -4 -420 2 -312 5 -383 16 -383 11 0 12 73 9 416 -3 228 -7 418 -10 420 -3 3 -8 -12 -11 -33z" />
    <path d="M1258 4034 c-5 -4 -8 -193 -8 -420 0 -320 3 -413 13 -417 9 -3 12 81 10 407 -2 226 -4 417 -5 424 -2 8 -6 10 -10 6z" />
    <path d="M623 3960 c0 -25 2 -35 4 -22 2 12 2 32 0 45 -2 12 -4 2 -4 -23z" />
    <path d="M773 3960 c0 -25 2 -35 4 -22 2 12 2 32 0 45 -2 12 -4 2 -4 -23z" />
    <path d="M1792 3738 c1 -117 5 -224 9 -238 4 -14 7 19 7 80 0 58 0 163 2 235 1 88 -1 130 -9 133 -8 3 -11 -56 -9 -210z" />
    <path d="M1890 3848 c0 -20 6 -38 13 -41 9 -3 9 -7 -2 -20 -12 -15 -11 -17 3 -17 9 0 16 -8 16 -17 0 -12 3 -14 11 -6 7 7 5 26 -7 64 -22 70 -34 83 -34 37z" />
    <path d="M1866 3843 c-6 -14 -5 -15 5 -6 7 7 10 15 7 18 -3 3 -9 -2 -12 -12z" />
    <path d="M617 3806 c-3 -19 -2 -48 3 -63 7 -22 8 -16 9 35 1 69 -4 80 -12 28z" />
    <path d="M251 3686 c0 -69 3 -136 8 -148 6 -15 8 30 7 119 -1 78 -5 145 -8 149 -4 3 -7 -51 -7 -120z" />
    <path d="M1901 3725 c0 -22 6 -48 13 -58 13 -16 14 -14 9 25 -8 61 -22 83 -22 33z" />
    <path d="M5592 3720 c0 -14 2 -19 5 -12 2 6 2 18 0 25 -3 6 -5 1 -5 -13z" />
    <path d="M4859 3696 c-2 -2 -114 -7 -249 -11 -135 -4 -301 -8 -369 -10 -68 -2 -126 -6 -128 -9 -8 -7 7 -27 16 -21 5 2 174 9 377 15 420 12 372 21 428 -82 35 -64 48 -46 15 20 -43 86 -70 116 -90 98z" />
    <path d="M1958 3658 c-6 -14 12 -95 31 -148 5 -14 17 -52 27 -85 9 -33 20 -64 24 -70 3 -5 7 -23 8 -40 1 -16 7 -31 12 -33 6 -2 10 -19 10 -37 0 -21 6 -35 16 -39 24 -9 26 -8 14 13 -5 11 -10 28 -10 38 0 10 -7 31 -15 47 -8 16 -14 34 -14 40 2 11 -2 25 -22 74 -5 13 -9 33 -9 46 0 12 -3 26 -7 30 -4 4 -19 46 -34 93 -14 47 -28 79 -31 71z" />
    <path d="M612 3575 c0 -16 2 -22 5 -12 2 9 2 23 0 30 -3 6 -5 -1 -5 -18z" />
    <path d="M4505 3559 c-99 -5 -244 -11 -323 -15 -101 -4 -142 -9 -139 -18 3 -6 8 -10 13 -9 5 1 104 4 219 8 116 4 235 8 265 10 114 7 326 7 344 -1 16 -6 18 -4 13 10 -4 10 -7 20 -7 22 0 6 -171 3 -385 -7z" />
    <path d="M615 3521 c-7 -12 -2 -281 5 -274 5 4 8 283 3 283 -1 0 -4 -4 -8 -9z" />
    <path d="M861 3504 c0 -11 3 -14 6 -6 3 7 2 16 -1 19 -3 4 -6 -2 -5 -13z" />
    <path d="M2150 3491 c0 -10 3 -21 7 -25 4 -3 8 -12 9 -19 5 -27 33 -126 49 -173 9 -27 18 -54 19 -61 1 -7 6 -16 11 -20 4 -4 5 -2 0 6 -6 10 -2 12 14 6 15 -4 21 -2 21 8 0 8 -6 17 -13 20 -16 6 -41 83 -32 97 3 6 2 10 -3 10 -12 0 -33 56 -25 64 3 3 0 13 -7 22 -11 12 -11 17 -1 23 10 6 9 10 -3 14 -9 4 -16 13 -16 21 0 7 -7 16 -15 20 -10 3 -15 -1 -15 -13z" />
    <path d="M4238 3476 c-31 -11 -46 -42 -29 -59 8 -8 11 -4 11 16 0 20 5 27 19 27 11 0 21 -5 23 -10 2 -6 14 -11 28 -12 14 0 90 -6 170 -14 80 -7 188 -15 240 -19 143 -8 231 -15 266 -21 22 -3 33 0 37 11 8 18 -9 22 -123 30 -47 3 -103 7 -125 10 -35 4 -97 9 -390 32 -38 3 -77 8 -85 12 -8 4 -27 3 -42 -3z" />
    <path d="M1796 3448 c-9 -36 -7 -198 3 -198 5 0 9 50 10 110 2 110 -1 130 -13 88z" />
    <path d="M5396 3442 c-2 -4 -1 -14 5 -22 6 -10 9 -11 9 -2 0 6 7 12 16 12 8 0 12 5 9 10 -7 12 -32 13 -39 2z" />
    <path d="M250 3400 c0 -22 5 -40 10 -40 6 0 10 18 10 40 0 22 -4 40 -10 40 -5 0 -10 -18 -10 -40z" />
    <path d="M5488 3433 c7 -3 16 -2 19 1 4 3 -2 6 -13 5 -11 0 -14 -3 -6 -6z" />
    <path d="M5520 3431 c0 -6 17 -7 38 -4 51 8 53 13 4 13 -23 0 -42 -4 -42 -9z" />
    <path d="M4170 3404 c0 -14 4 -23 10 -19 6 3 10 15 10 26 0 10 -4 19 -10 19 -5 0 -10 -12 -10 -26z" />
    <path d="M2322 3373 c12 -21 26 -41 32 -44 5 -4 6 -14 3 -23 -4 -9 -3 -16 2 -16 8 0 12 -9 30 -64 4 -11 16 -21 28 -22 16 -3 21 0 17 11 -4 8 -9 15 -13 15 -4 0 -13 16 -20 35 -7 21 -17 33 -23 29 -7 -5 -9 -1 -5 8 3 9 -2 23 -13 33 -10 9 -24 30 -30 46 -7 16 -16 29 -21 29 -5 0 1 -17 13 -37z" />
    <path d="M4215 3338 l0 -63 -72 -1 c-40 -1 -70 3 -68 7 3 4 -9 4 -27 -1 -18 -5 -56 -8 -85 -7 -28 1 -49 -1 -46 -5 2 -5 -4 -8 -15 -8 -11 0 -25 13 -35 35 -24 50 -40 43 -18 -7 11 -24 22 -51 25 -60 8 -25 21 -22 34 7 12 25 13 25 109 20 54 -2 125 -6 158 -7 l60 -3 3 78 c2 57 -1 77 -10 77 -9 0 -13 -18 -13 -62z" />
    <path d="M4145 3382 c-5 -4 -11 -13 -13 -21 -2 -11 0 -12 11 -3 8 7 17 9 21 5 4 -4 4 0 0 10 -7 20 -6 19 -19 9z" />
    <path d="M3905 3370 c-17 -8 -17 -9 7 -7 15 1 24 5 22 9 -3 4 -6 8 -7 7 -1 0 -11 -4 -22 -9z" />
    <path d="M4192 3360 c0 -14 2 -19 5 -12 2 6 2 18 0 25 -3 6 -5 1 -5 -13z" />
    <path d="M5054 3372 c-7 -5 -6 -15 3 -32 l13 -25 0 33 c0 35 0 35 -16 24z" />
    <path d="M5410 3356 c0 -14 3 -27 8 -29 4 -3 7 8 7 24 0 16 -3 29 -7 29 -5 0 -8 -11 -8 -24z" />
    <path d="M3987 3359 c7 -7 15 -10 18 -7 3 3 -2 9 -12 12 -14 6 -15 5 -6 -5z" />
    <path d="M5000 3327 c0 -55 14 -106 30 -110 17 -4 17 -2 4 35 -8 22 -14 49 -14 59 0 10 -4 21 -10 24 -5 3 -10 0 -10 -8z" />
    <path d="M5425 3290 c-3 -5 -1 -10 4 -10 6 0 11 5 11 10 0 6 -2 10 -4 10 -3 0 -8 -4 -11 -10z" />
    <path d="M250 3266 c0 -8 5 -18 10 -21 6 -3 10 3 10 14 0 12 -4 21 -10 21 -5 0 -10 -6 -10 -14z" />
    <path d="M5440 3262 c0 -4 9 -13 20 -20 22 -13 27 -3 8 16 -14 14 -28 16 -28 4z" />
    <path d="M4300 3240 c0 -5 14 -10 32 -10 36 0 35 4 -4 14 -17 4 -28 2 -28 -4z" />
    <path d="M1790 3224 c0 -8 11 -14 25 -14 14 0 25 4 25 9 0 5 -11 11 -25 13 -17 4 -25 1 -25 -8z" />
    <path d="M4268 3233 c7 -3 16 -2 19 1 4 3 -2 6 -13 5 -11 0 -14 -3 -6 -6z" />
    <path d="M4408 3233 c7 -3 16 -2 19 1 4 3 -2 6 -13 5 -11 0 -14 -3 -6 -6z" />
    <path d="M251 3221 c-10 -6 -10 -10 -1 -16 13 -8 24 -1 19 14 -3 6 -10 7 -18 2z" />
    <path d="M580 3220 c0 -5 7 -7 15 -4 8 4 15 1 15 -5 0 -6 7 -8 16 -4 13 5 13 7 2 14 -18 12 -48 11 -48 -1z" />
    <path d="M1968 3223 c6 -2 18 -2 25 0 6 3 1 5 -13 5 -14 0 -19 -2 -12 -5z" />
    <path d="M401 3216 c8 -8 88 -10 95 -3 4 4 -17 7 -46 7 -29 0 -51 -2 -49 -4z" />
    <path d="M5120 3204 c0 -8 5 -12 10 -9 6 4 8 11 5 16 -9 14 -15 11 -15 -7z" />
    <path d="M4080 3190 c0 -5 5 -10 10 -10 6 0 10 5 10 10 0 6 -4 10 -10 10 -5 0 -10 -4 -10 -10z" />
    <path d="M2480 3180 c-8 -5 -10 -10 -5 -10 6 0 17 5 25 10 8 5 11 10 5 10 -5 0 -17 -5 -25 -10z" />
    <path d="M3915 3180 c-4 -6 8 -10 30 -10 22 0 34 4 30 10 -3 6 -17 10 -30 10 -13 0 -27 -4 -30 -10z" />
    <path d="M1565 3170 c-8 -13 5 -13 25 0 13 8 13 10 -2 10 -9 0 -20 -4 -23 -10z" />
    <path d="M1668 3173 c6 -2 18 -2 25 0 6 3 1 5 -13 5 -14 0 -19 -2 -12 -5z" />
    <path d="M4358 3173 c23 -2 61 -2 85 0 23 2 4 4 -43 4 -47 0 -66 -2 -42 -4z" />
    <path d="M4516 3173 c5 -5 88 -6 184 -3 l175 6 -184 2 c-102 1 -181 -1 -175 -5z" />
    <path d="M4913 3173 c9 -2 25 -2 35 0 9 3 1 5 -18 5 -19 0 -27 -2 -17 -5z" />
    <path d="M2505 3160 c-3 -6 1 -7 9 -4 18 7 21 14 7 14 -6 0 -13 -4 -16 -10z" />
    <path d="M5068 3163 c7 -3 16 -2 19 1 4 3 -2 6 -13 5 -11 0 -14 -3 -6 -6z" />
    <path d="M2483 3135 c0 -8 4 -12 9 -9 5 3 6 10 3 15 -9 13 -12 11 -12 -6z" />
    <path d="M3715 3130 c-3 -6 1 -7 9 -4 18 7 21 14 7 14 -6 0 -13 -4 -16 -10z" />
    <path d="M3583 3055 c0 -8 4 -12 9 -9 5 3 6 10 3 15 -9 13 -12 11 -12 -6z" />
    <path d="M124 2999 c-3 -5 3 -12 13 -16 10 -3 30 -19 44 -35 14 -15 31 -28 37 -28 5 0 13 -6 15 -12 4 -10 6 -10 6 -1 1 7 -8 17 -19 23 -11 6 -20 17 -20 25 0 7 -8 16 -17 18 -26 7 18 9 225 10 101 1 186 -1 188 -4 2 -3 29 -7 61 -8 32 -1 79 -3 106 -4 26 -1 49 3 50 8 3 7 285 10 818 11 890 0 863 0 855 13 -4 6 -382 9 -932 8 -774 -1 -929 -3 -940 -15 -11 -11 -14 -11 -14 0 0 10 -48 13 -235 14 -130 1 -238 -2 -241 -7z" />
    <path d="M3485 3000 c-3 -6 0 -10 7 -11 7 0 4 -4 -7 -9 -16 -7 -17 -9 -3 -9 9 -1 19 3 22 8 3 5 369 9 848 9 1229 1 1248 1 1248 12 0 14 -2107 13 -2115 0z" />
    <path d="M609 2898 c-1 -35 -1 -116 0 -181 3 -103 1 -116 -13 -111 -20 8 -21 -10 -1 -26 8 -7 15 -19 15 -27 0 -8 4 -11 10 -8 12 7 11 415 -1 415 -5 0 -10 -28 -10 -62z" />
    <path d="M822 2944 c2 -16 7 -20 22 -16 15 4 17 7 6 10 -8 3 -18 10 -22 16 -4 6 -6 1 -6 -10z" />
    <path d="M63 2900 c3 -11 1 -20 -4 -20 -15 0 -11 -77 5 -83 11 -5 15 8 18 59 2 49 0 64 -11 64 -8 0 -11 -7 -8 -20z" />
    <path d="M120 2910 c19 -13 30 -13 30 0 0 6 -10 10 -22 10 -19 0 -20 -2 -8 -10z" />
    <path d="M816 2883 c-8 -27 -4 -221 6 -235 4 -7 8 47 8 120 0 128 -3 151 -14 115z" />
    <path d="M248 2883 c7 -3 16 -2 19 1 4 3 -2 6 -13 5 -11 0 -14 -3 -6 -6z" />
    <path d="M920 2861 c0 -5 5 -13 10 -16 6 -3 10 -2 10 4 0 5 -4 13 -10 16 -5 3 -10 2 -10 -4z" />
    <path d="M60 2726 c0 -2 11 -6 25 -8 14 -3 25 -1 25 3 0 5 -11 9 -25 9 -14 0 -25 -2 -25 -4z" />
    <path d="M460 2714 c0 -14 66 -74 74 -67 11 11 6 23 -8 23 -8 0 -17 7 -20 16 -4 9 -9 14 -13 11 -3 -4 -12 1 -19 11 -7 9 -14 12 -14 6z" />
    <path d="M140 2690 c0 -5 5 -10 10 -10 6 0 10 5 10 10 0 6 -4 10 -10 10 -5 0 -10 -4 -10 -10z" />
    <path d="M1110 2673 c0 -4 5 -15 10 -23 8 -13 10 -13 10 2 0 9 -4 20 -10 23 -5 3 -10 3 -10 -2z" />
    <path d="M547 2647 c-3 -8 1 -21 9 -27 15 -13 17 -6 5 24 -6 17 -8 17 -14 3z" />
    <path d="M820 2610 c0 -11 4 -20 9 -20 5 0 7 9 4 20 -3 11 -7 20 -9 20 -2 0 -4 -9 -4 -20z" />
    <path d="M1170 2620 c0 -5 5 -10 11 -10 5 0 7 5 4 10 -3 6 -8 10 -11 10 -2 0 -4 -4 -4 -10z" />
    <path d="M248 2533 c5 -59 10 -63 11 -10 1 26 -3 47 -7 47 -4 0 -6 -17 -4 -37z" />
    <path d="M4970 2550 c-9 -6 -10 -10 -3 -10 6 0 15 5 18 10 8 12 4 12 -15 0z" />
    <path d="M4985 2530 c-4 -6 -10 -8 -14 -6 -4 3 -8 -1 -8 -7 0 -7 -15 -40 -34 -72 -60 -105 -109 -221 -109 -260 0 -14 23 -87 51 -163 29 -75 58 -154 66 -175 23 -64 61 -134 93 -171 47 -54 230 -169 514 -325 32 -18 56 -27 54 -20 -2 7 -24 23 -47 36 -133 70 -386 221 -445 266 -87 65 -111 108 -207 361 -69 184 -72 197 -50 251 24 58 114 233 130 254 24 31 49 25 121 -30 30 -22 57 -43 59 -45 2 -2 -7 -12 -19 -22 -23 -19 -23 -18 -50 12 -38 41 -51 28 -90 -90 -17 -52 -39 -98 -48 -104 -15 -8 -14 -9 5 -10 14 0 35 15 55 38 18 20 63 68 100 105 56 56 72 67 91 62 25 -8 67 -50 67 -68 -1 -7 -24 -30 -52 -52 -28 -22 -62 -55 -75 -72 -14 -18 -34 -33 -44 -33 -10 0 -21 -4 -24 -10 -3 -6 4 -10 17 -10 15 0 48 25 98 75 41 41 82 77 92 81 26 8 55 -12 83 -56 30 -47 30 -50 7 -50 -10 0 -44 -15 -75 -34 -35 -21 -64 -32 -77 -29 -11 3 -20 0 -20 -6 0 -21 50 -11 113 24 35 19 69 35 76 35 15 0 61 -97 61 -130 0 -17 -14 -39 -40 -65 -47 -46 -68 -39 -22 8 38 39 39 53 9 90 l-23 28 -41 -30 c-23 -16 -43 -34 -46 -38 -3 -5 8 -37 25 -71 33 -69 47 -157 29 -189 -8 -16 -7 -23 2 -31 9 -7 150 -70 245 -109 6 -3 12 -1 12 5 0 5 -56 34 -125 62 -69 29 -125 54 -125 56 0 1 9 24 21 51 14 32 19 59 15 82 -5 31 0 40 39 82 50 53 51 59 30 119 -13 37 -13 44 0 63 22 32 19 80 -7 104 -33 29 -133 93 -147 93 -6 0 -11 -4 -11 -10 0 -5 5 -10 12 -10 34 0 172 -110 156 -125 -13 -13 -63 14 -93 51 -20 24 -45 44 -55 44 -10 0 -22 10 -25 22 -11 32 -54 68 -83 68 -24 0 -122 64 -122 80 0 5 -17 14 -37 19 -47 13 -50 13 -58 1z m101 -136 c16 -24 16 -26 -5 -47 l-23 -22 5 39 c3 21 1 34 -3 30 -5 -5 -10 -25 -11 -46 -2 -22 -14 -49 -31 -70 l-27 -33 15 45 c30 92 46 130 55 130 5 0 16 -12 25 -26z m364 -169 c0 -11 -13 -35 -19 -35 -4 0 -13 11 -18 23 -10 22 -9 23 13 19 13 -2 24 -6 24 -7z m-57 -139 c15 -22 14 -25 -7 -45 -12 -11 -25 -21 -29 -21 -13 0 -7 27 8 40 21 17 12 24 -14 10 -23 -12 -26 -31 -11 -58 20 -35 36 -99 30 -117 -5 -14 -8 -8 -12 23 -4 23 -18 65 -32 94 l-26 52 27 23 c36 29 47 28 66 -1z" />
    <path d="M5100 2530 c-10 -6 -11 -10 -2 -10 6 0 11 -5 10 -10 -2 -7 81 -11 245 -13 136 -1 247 1 247 6 0 4 -19 7 -42 7 -369 3 -443 6 -440 18 2 14 1 15 -18 2z" />
    <path d="M1270 2508 c0 -4 3 -8 8 -9 4 0 15 -2 24 -4 10 -2 20 0 23 5 3 4 -9 10 -25 12 -17 3 -30 1 -30 -4z" />
    <path d="M4200 2510 c-248 -10 -86 -17 315 -13 226 1 416 3 423 3 6 0 12 3 12 8 0 8 -556 10 -750 2z" />
    <path d="M1370 2499 c0 -5 5 -7 10 -4 6 3 10 8 10 11 0 2 -4 4 -10 4 -5 0 -10 -5 -10 -11z" />
    <path d="M5256 2428 c3 -5 10 -6 15 -3 13 9 11 12 -6 12 -8 0 -12 -4 -9 -9z" />
    <path d="M250 2360 c0 -22 5 -40 10 -40 6 0 10 18 10 40 0 22 -4 40 -10 40 -5 0 -10 -18 -10 -40z" />
    <path d="M5175 2370 c-4 -6 -10 -8 -15 -5 -5 3 -11 1 -14 -4 -11 -16 11 -22 24 -6 7 8 17 12 23 8 6 -3 7 -1 3 5 -9 15 -13 15 -21 2z" />
    <path d="M5111 2316 c-9 -10 -9 -16 -1 -21 6 -4 14 -4 17 -1 4 3 1 6 -6 6 -7 0 -9 5 -6 10 5 8 11 8 20 0 10 -8 15 -8 21 2 4 7 4 10 -1 6 -4 -4 -14 -3 -20 2 -9 7 -16 6 -24 -4z" />
    <path d="M5490 2325 c0 -2 6 -8 13 -14 10 -8 14 -7 14 2 0 8 -6 14 -14 14 -7 0 -13 -1 -13 -2z" />
    <path d="M612 2300 c0 -14 2 -19 5 -12 2 6 2 18 0 25 -3 6 -5 1 -5 -13z" />
    <path d="M4160 2309 c0 -10 79 -15 125 -8 49 7 32 11 -57 13 -38 0 -68 -2 -68 -5z" />
    <path d="M4455 2310 c-7 -12 29 -12 65 0 21 7 19 8 -17 9 -23 1 -45 -3 -48 -9z" />
    <path d="M4560 2313 c0 -4 63 -8 140 -8 77 0 140 3 140 7 0 3 -63 7 -140 7 -77 1 -140 -2 -140 -6z" />
    <path d="M4363 2303 c9 -2 23 -2 30 0 6 3 -1 5 -18 5 -16 0 -22 -2 -12 -5z" />
    <path d="M5074 2288 c-4 -7 -3 -10 1 -5 5 4 18 -1 29 -10 21 -18 21 -18 2 5 -22 26 -23 26 -32 10z" />
    <path d="M1260 2279 c0 -5 5 -7 10 -4 6 3 10 8 10 11 0 2 -4 4 -10 4 -5 0 -10 -5 -10 -11z" />
    <path d="M1290 2280 c0 -5 20 -10 45 -10 25 0 45 5 45 10 0 6 -20 10 -45 10 -25 0 -45 -4 -45 -10z" />
    <path d="M1244 2239 c-3 -6 -1 -16 5 -22 8 -8 11 -5 11 11 0 24 -5 28 -16 11z" />
    <path d="M5186 2184 c-5 -14 -9 -14 -24 -3 -15 13 -16 12 -3 -4 13 -16 16 -16 30 -3 8 9 12 18 9 21 -3 3 -8 -2 -12 -11z" />
    <path d="M690 2170 c-40 -8 -29 -11 51 -13 37 -1 55 2 52 9 -5 12 -52 14 -103 4z" />
    <path d="M4850 2176 c0 -2 7 -7 16 -10 8 -3 12 -2 9 4 -6 10 -25 14 -25 6z" />
    <path d="M4990 2176 c0 -2 7 -7 16 -10 8 -3 12 -2 9 4 -6 10 -25 14 -25 6z" />
    <path d="M251 2118 c1 -37 2 -39 9 -18 12 36 12 60 0 60 -5 0 -10 -19 -9 -42z" />
    <path d="M810 2110 c0 -5 5 -10 10 -10 6 0 10 5 10 10 0 6 -4 10 -10 10 -5 0 -10 -4 -10 -10z" />
    <path d="M851 2014 c0 -11 3 -14 6 -6 3 7 2 16 -1 19 -3 4 -6 -2 -5 -13z" />
    <path d="M872 1950 c0 -14 2 -19 5 -12 2 6 2 18 0 25 -3 6 -5 1 -5 -13z" />
    <path d="M5419 1943 c-13 -16 -12 -17 4 -4 16 13 21 21 13 21 -2 0 -10 -8 -17 -17z" />
    <path d="M240 1880 c0 -22 5 -40 10 -40 6 0 10 18 10 40 0 22 -4 40 -10 40 -5 0 -10 -18 -10 -40z" />
    <path d="M891 1904 c0 -11 3 -14 6 -6 3 7 2 16 -1 19 -3 4 -6 -2 -5 -13z" />
    <path d="M903 1860 c-1 -11 2 -22 6 -24 4 -3 7 4 8 14 1 11 -2 22 -6 24 -4 3 -7 -4 -8 -14z" />
    <path d="M940 1771 c0 -6 4 -13 10 -16 6 -3 7 1 4 9 -7 18 -14 21 -14 7z" />
    <path d="M251 1700 c1 -33 6 -60 10 -60 5 0 9 27 9 60 0 34 -4 60 -10 60 -6 0 -10 -26 -9 -60z" />
    <path d="M1253 1685 c0 -22 2 -30 4 -17 2 12 2 30 0 40 -3 9 -5 -1 -4 -23z" />
    <path d="M970 1690 c0 -5 5 -10 11 -10 5 0 7 5 4 10 -3 6 -8 10 -11 10 -2 0 -4 -4 -4 -10z" />
    <path d="M4976 1691 c-4 -5 -2 -12 3 -15 5 -4 12 -2 15 3 4 5 2 12 -3 15 -5 4 -12 2 -15 -3z" />
    <path d="M5090 1682 c0 -5 10 -17 23 -28 22 -19 22 -19 4 2 -9 11 -14 24 -10 27 3 4 1 7 -5 7 -7 0 -12 -4 -12 -8z" />
    <path d="M5126 1681 c3 -3 18 -6 32 -6 24 0 27 -4 27 -32 0 -17 2 -34 5 -36 3 -3 5 14 6 39 l0 44 -38 -2 c-21 -1 -35 -4 -32 -7z" />
    <path d="M5150 1660 c-9 -6 -10 -10 -3 -10 6 0 15 5 18 10 8 12 4 12 -15 0z" />
    <path d="M990 1639 c0 -20 23 -69 33 -69 11 0 9 18 -3 25 -6 4 -8 9 -6 13 2 4 -2 16 -10 27 -10 14 -14 15 -14 4z" />
    <path d="M5308 1613 c7 -3 16 -2 19 1 4 3 -2 6 -13 5 -11 0 -14 -3 -6 -6z" />
    <path d="M260 1584 c0 -12 7 -24 15 -28 19 -7 19 5 0 30 -14 19 -14 19 -15 -2z" />
    <path d="M307 1554 c-9 -9 33 -45 44 -38 12 7 11 15 0 12 -5 -2 -16 5 -23 15 -7 10 -17 15 -21 11z" />
    <path d="M1025 1540 c-3 -5 -1 -10 4 -10 6 0 11 5 11 10 0 6 -2 10 -4 10 -3 0 -8 -4 -11 -10z" />
    <path d="M1037 1500 c3 -11 9 -17 15 -14 5 3 4 12 -3 20 -16 19 -18 18 -12 -6z" />
    <path d="M394 1487 c3 -10 6 -21 6 -23 0 -2 7 -4 15 -4 8 0 15 5 15 11 0 5 -4 8 -9 4 -6 -3 -15 3 -21 12 -11 17 -11 17 -6 0z" />
    <path d="M5425 1491 c-3 -5 -2 -12 3 -15 5 -3 9 1 9 9 0 17 -3 19 -12 6z" />
    <path d="M1050 1455 c7 -9 15 -13 17 -11 7 7 -7 26 -19 26 -6 0 -6 -6 2 -15z" />
    <path d="M440 1450 c0 -6 7 -10 15 -10 8 0 15 -4 15 -10 0 -5 5 -10 10 -10 19 0 10 17 -15 28 -15 7 -25 8 -25 2z" />
    <path d="M1254 1370 c0 -52 1 -74 3 -47 2 26 2 68 0 95 -2 26 -3 4 -3 -48z" />
    <path d="M1088 1385 c2 -14 8 -25 12 -25 10 0 1 38 -10 45 -4 2 -5 -7 -2 -20z" />
    <path d="M540 1381 c0 -5 7 -12 16 -15 14 -5 15 -4 4 9 -14 17 -20 19 -20 6z" />
    <path d="M1095 1340 c-3 -6 1 -7 9 -4 18 7 21 14 7 14 -6 0 -13 -4 -16 -10z" />
    <path d="M620 1321 c0 -5 7 -12 16 -15 14 -5 15 -4 4 9 -14 17 -20 19 -20 6z" />
    <path d="M1032 1255 c0 -16 2 -22 5 -12 2 9 2 23 0 30 -3 6 -5 -1 -5 -18z" />
    <path d="M2060 1229 c0 -19 5 -41 10 -49 6 -10 8 -1 5 29 -5 53 -15 67 -15 20z" />
    <path d="M1150 1210 c0 -5 5 -10 10 -10 6 0 10 5 10 10 0 6 -4 10 -10 10 -5 0 -10 -4 -10 -10z" />
    <path d="M820 1191 c0 -11 29 -35 35 -29 2 2 -4 12 -15 21 -11 9 -20 13 -20 8z" />
    <path d="M1160 1170 c0 -5 5 -10 10 -10 6 0 10 5 10 10 0 6 -4 10 -10 10 -5 0 -10 -4 -10 -10z" />
    <path d="M1240 1144 c0 -10 5 -26 10 -34 8 -11 9 -7 4 15 -8 37 -14 45 -14 19z" />
    <path d="M2071 1134 c0 -11 3 -14 6 -6 3 7 2 16 -1 19 -3 4 -6 -2 -5 -13z" />
    <path d="M1076 1117 c3 -10 9 -15 12 -12 3 3 0 11 -7 18 -10 9 -11 8 -5 -6z" />
    <path d="M1206 1053 l4 -43 -39 0 c-29 0 -43 6 -54 23 -15 21 -15 21 -4 -10 11 -32 11 -32 79 -32 37 1 68 5 68 9 0 5 -11 17 -24 28 -13 10 -26 29 -29 43 -2 13 -3 5 -1 -18z" />
    <path d="M3896 1042 c-3 -5 1 -9 9 -9 8 0 12 4 9 9 -3 4 -7 8 -9 8 -2 0 -6 -4 -9 -8z" />
    <path d="M1285 861 c-3 -5 -2 -12 3 -15 5 -3 9 1 9 9 0 17 -3 19 -12 6z" />
    <path d="M2153 798 c-7 -8 -9 -65 -7 -152 4 -139 13 -198 15 -95 1 30 2 90 3 134 1 44 5 85 8 90 4 6 3 17 -1 23 -6 10 -10 10 -18 0z" />
    <path d="M4080 790 c0 -6 117 -9 315 -8 173 1 315 6 315 10 0 4 -142 8 -315 8 -197 0 -315 -4 -315 -10z" />
    <path d="M4720 793 c0 -5 198 -9 440 -10 276 -1 440 1 440 7 0 6 -166 10 -440 10 -242 0 -440 -3 -440 -7z" />
    <path d="M4161 735 c11 -10 246 -16 284 -7 31 8 5 10 -124 11 -90 1 -162 -1 -160 -4z" />
    <path d="M4562 735 c10 -10 238 -17 238 -7 0 6 -47 10 -121 11 -67 0 -120 -2 -117 -4z" />
    <path d="M4815 730 c8 -13 135 -13 155 0 10 7 -13 10 -73 10 -56 0 -86 -4 -82 -10z" />
    <path d="M5013 733 c3 -5 97 -10 208 -11 111 -1 199 1 196 5 -11 10 -410 16 -404 6z" />
    <path d="M5440 731 c0 -9 120 -24 128 -16 3 3 -8 6 -24 7 -21 1 -17 3 16 8 39 6 33 7 -37 8 -46 1 -83 -2 -83 -7z" />
    <path d="M1967 709 c4 -13 8 -18 11 -10 2 7 -1 18 -6 23 -8 8 -9 4 -5 -13z" />
    <path d="M2408 513 c6 -2 18 -2 25 0 6 3 1 5 -13 5 -14 0 -19 -2 -12 -5z" />
    <path d="M3953 505 c0 -8 4 -12 9 -9 5 3 6 10 3 15 -9 13 -12 11 -12 -6z" />
    <path d="M1376 435 c-9 -26 -7 -32 5 -12 6 10 9 21 6 23 -2 3 -7 -2 -11 -11z" />
    <path d="M3741 427 c-13 -21 -12 -21 5 -5 10 10 16 20 13 22 -3 3 -11 -5 -18 -17z" />
    <path d="M4414 439 c-3 -6 -2 -15 3 -20 5 -5 9 -1 9 11 0 23 -2 24 -12 9z" />
    <path d="M5323 432 c19 -21 22 -63 7 -78 -8 -8 -6 -15 6 -25 13 -10 16 -10 10 -1 -4 7 -3 19 4 27 20 24 8 77 -19 87 -24 8 -24 8 -8 -10z" />
    <path d="M1816 412 c-3 -5 1 -9 9 -9 8 0 12 4 9 9 -3 4 -7 8 -9 8 -2 0 -6 -4 -9 -8z" />
    <path d="M3745 399 c-4 -6 -5 -12 -2 -15 2 -3 7 2 10 11 7 17 1 20 -8 4z" />
    <path d="M4705 320 c17 -11 26 -20 20 -21 -14 -1 27 -17 45 -18 8 0 -6 13 -32 29 -53 33 -81 41 -33 10z" />
    <path d="M4484 304 c1 -7 6 -17 10 -21 4 -4 6 -1 4 7 -2 9 3 14 12 12 8 -2 11 0 7 4 -13 14 -35 12 -33 -2z" />
    <path d="M5430 301 c0 -5 7 -14 15 -21 8 -7 12 -16 9 -21 -3 -5 0 -8 8 -7 7 2 12 -4 10 -12 -2 -8 -1 -12 3 -8 12 12 35 -19 29 -39 -4 -13 -3 -15 4 -4 5 7 12 9 15 5 40 -68 46 -85 37 -110 -6 -15 -14 -22 -22 -18 -8 5 -9 2 -5 -9 4 -10 1 -17 -5 -17 -6 0 -9 -3 -6 -6 11 -11 48 21 58 50 8 23 6 36 -7 63 -34 64 -143 182 -143 154z" />
    <path d="M3256 253 c-6 -14 -5 -15 5 -6 7 7 10 15 7 18 -3 3 -9 -2 -12 -12z" />
    <path d="M1659 238 c-7 -13 -17 -26 -23 -30 -8 -5 -7 -8 1 -8 7 0 19 14 28 30 9 17 13 30 11 30 -3 0 -11 -10 -17 -22z" />
    <path d="M4567 249 c7 -7 15 -10 18 -7 3 3 -2 9 -12 12 -14 6 -15 5 -6 -5z" />
    <path d="M3972 220 c0 -14 2 -19 5 -12 2 6 2 18 0 25 -3 6 -5 1 -5 -13z" />
    <path d="M4530 221 c0 -6 4 -13 10 -16 6 -3 7 1 4 9 -7 18 -14 21 -14 7z" />
    <path d="M171 194 c0 -11 3 -14 6 -6 3 7 2 16 -1 19 -3 4 -6 -2 -5 -13z" />
    <path d="M4509 183 c-13 -16 -12 -17 4 -4 9 7 17 15 17 17 0 8 -8 3 -21 -13z" />
    <path d="M5165 158 c-9 -24 -31 -58 -48 -76 -18 -18 -32 -44 -32 -57 -1 -24 6 -24 37 3 15 13 21 12 53 -7 20 -11 39 -21 42 -21 12 0 -22 32 -47 45 -24 12 -30 12 -46 0 -11 -8 -23 -14 -29 -15 -13 0 57 64 94 86 29 17 30 17 83 -16 29 -19 72 -49 95 -67 23 -18 44 -33 47 -33 14 0 -45 55 -97 91 -78 53 -100 61 -123 44 -31 -24 -37 -17 -15 19 23 37 25 46 12 46 -5 0 -16 -19 -26 -42z" />
    <path d="M400 161 c0 -11 60 -58 108 -84 17 -10 32 -15 32 -12 0 9 -43 44 -55 45 -5 0 -21 9 -35 20 -36 28 -4 26 53 -4 25 -14 48 -22 51 -19 8 8 80 -52 96 -81 7 -14 17 -26 22 -26 19 0 5 24 -41 69 -35 35 -68 55 -120 74 -75 28 -111 34 -111 18z" />
    <path d="M780 120 c-9 -6 -10 -10 -3 -10 6 0 15 5 18 10 8 12 4 12 -15 0z" />
    <path d="M1524 102 c3 -6 0 -12 -6 -15 -7 -2 -1 -4 14 -3 34 1 34 2 7 17 -13 6 -19 7 -15 1z" />
    <path d="M556 48 c5 -55 14 -62 14 -10 0 22 -4 43 -9 46 -4 3 -7 -13 -5 -36z" />
    <path d="M4478 78 c5 -5 16 -8 23 -6 8 3 3 7 -10 11 -17 4 -21 3 -13 -5z" />
    <path d="M4962 35 c24 -37 42 -47 31 -17 -8 22 -34 52 -45 52 -4 0 2 -16 14 -35z" />
    <path d="M5565 24 c-20 -16 -25 -24 -14 -24 16 0 56 37 48 44 -2 2 -17 -7 -34 -20z" />
    <path d="M810 31 c0 -5 17 -15 38 -20 52 -15 73 -13 36 3 -52 23 -74 28 -74 17z" />
    <path d="M393 3 c9 -2 25 -2 35 0 9 3 1 5 -18 5 -19 0 -27 -2 -17 -5z" />
  </g>
</svg>